<svg width="1920" height="1080" viewBox="0 0 1920 1080" fill="none" xmlns="http://www.w3.org/2000/svg">
<mask id="mask0_541_49796" style="mask-type:alpha" maskUnits="userSpaceOnUse" x="0" y="0" width="1920" height="1080">
<rect x="0.5" y="0.5" width="1919" height="1079" fill="url(#paint0_radial_541_49796)" stroke="#EAECF0"/>
</mask>
<g mask="url(#mask0_541_49796)">
<rect x="1296" width="48" height="48" stroke="#EAECF0"/>
<rect x="1344" width="48" height="48" stroke="#EAECF0"/>
<rect x="1392" width="48" height="48" stroke="#EAECF0"/>
<rect x="1440" width="48" height="48" stroke="#EAECF0"/>
<rect x="1488" width="48" height="48" stroke="#EAECF0"/>
<rect x="1536" width="48" height="48" stroke="#EAECF0"/>
<rect x="1584" width="48" height="48" fill="#F2F4F7" stroke="#EAECF0"/>
<rect x="1632" width="48" height="48" stroke="#EAECF0"/>
<rect x="1680" width="48" height="48" stroke="#EAECF0"/>
<rect x="1728" width="48" height="48" stroke="#EAECF0"/>
<rect x="1776" width="48" height="48" stroke="#EAECF0"/>
<rect x="1824" width="48" height="48" stroke="#EAECF0"/>
<rect x="1872" width="48" height="48" stroke="#EAECF0"/>
<rect x="1680" y="48" width="48" height="48" stroke="#EAECF0"/>
<rect x="1728" y="48" width="48" height="48" stroke="#EAECF0"/>
<rect x="1776" y="48" width="48" height="48" fill="#F2F4F7" stroke="#EAECF0"/>
<rect x="1824" y="48" width="48" height="48" stroke="#EAECF0"/>
<rect x="1872" y="48" width="48" height="48" stroke="#EAECF0"/>
<rect x="1296" y="96" width="48" height="48" stroke="#EAECF0"/>
<rect x="1344" y="96" width="48" height="48" fill="#F2F4F7" stroke="#EAECF0"/>
<rect x="1392" y="96" width="48" height="48" stroke="#EAECF0"/>
<rect x="1440" y="96" width="48" height="48" stroke="#EAECF0"/>
<rect x="1488" y="96" width="48" height="48" stroke="#EAECF0"/>
<rect x="1536" y="96" width="48" height="48" stroke="#EAECF0"/>
<rect x="1584" y="96" width="48" height="48" stroke="#EAECF0"/>
<rect x="1632" y="96" width="48" height="48" stroke="#EAECF0"/>
<rect x="1632" y="144" width="48" height="48" fill="#F2F4F7" stroke="#EAECF0"/>
<rect x="1680" y="144" width="48" height="48" stroke="#EAECF0"/>
<rect x="1728" y="144" width="48" height="48" stroke="#EAECF0"/>
<rect x="1776" y="144" width="48" height="48" stroke="#EAECF0"/>
<rect x="1824" y="144" width="48" height="48" stroke="#EAECF0"/>
<rect x="1872" y="144" width="48" height="48" stroke="#EAECF0"/>
<rect x="1632" y="192" width="48" height="48" stroke="#EAECF0"/>
<rect x="1680" y="192" width="48" height="48" stroke="#EAECF0"/>
<rect x="1728" y="192" width="48" height="48" stroke="#EAECF0"/>
<rect x="1776" y="192" width="48" height="48" stroke="#EAECF0"/>
<rect x="1824" y="192" width="48" height="48" stroke="#EAECF0"/>
<rect x="1872" y="192" width="48" height="48" fill="#F2F4F7" stroke="#EAECF0"/>
<rect x="1392" y="240" width="48" height="48" stroke="#EAECF0"/>
<rect x="1440" y="240" width="48" height="48" fill="#F2F4F7" stroke="#EAECF0"/>
<rect x="1488" y="240" width="48" height="48" stroke="#EAECF0"/>
<rect x="1536" y="240" width="48" height="48" stroke="#EAECF0"/>
<rect x="1584" y="240" width="48" height="48" stroke="#EAECF0"/>
<rect x="1632" y="240" width="48" height="48" stroke="#EAECF0"/>
<rect x="1680" y="240" width="48" height="48" stroke="#EAECF0"/>
<rect x="1728" y="240" width="48" height="48" fill="#F2F4F7" stroke="#EAECF0"/>
<rect x="1776" y="240" width="48" height="48" stroke="#EAECF0"/>
<rect x="1824" y="240" width="48" height="48" stroke="#EAECF0"/>
<rect x="1872" y="240" width="48" height="48" stroke="#EAECF0"/>
<rect x="1296" y="288" width="48" height="48" stroke="#EAECF0"/>
<rect x="1344" y="288" width="48" height="48" fill="#F2F4F7" stroke="#EAECF0"/>
<rect x="1392" y="288" width="48" height="48" stroke="#EAECF0"/>
<rect x="1440" y="288" width="48" height="48" stroke="#EAECF0"/>
<rect x="1488" y="288" width="48" height="48" stroke="#EAECF0"/>
<rect x="1536" y="288" width="48" height="48" stroke="#EAECF0"/>
<rect x="1584" y="288" width="48" height="48" stroke="#EAECF0"/>
<rect x="1632" y="288" width="48" height="48" stroke="#EAECF0"/>
<rect x="1632" y="336" width="48" height="48" stroke="#EAECF0"/>
<rect x="1680" y="336" width="48" height="48" stroke="#EAECF0"/>
<rect x="1728" y="336" width="48" height="48" stroke="#EAECF0"/>
<rect x="1776" y="336" width="48" height="48" stroke="#EAECF0"/>
<rect x="1824" y="336" width="48" height="48" stroke="#EAECF0"/>
<rect x="1872" y="336" width="48" height="48" stroke="#EAECF0"/>
<rect x="1536" y="384" width="48" height="48" stroke="#EAECF0"/>
<rect x="1584" y="384" width="48" height="48" stroke="#EAECF0"/>
<rect x="1632" y="384" width="48" height="48" stroke="#EAECF0"/>
<rect x="1680" y="384" width="48" height="48" stroke="#EAECF0"/>
<rect x="1728" y="384" width="48" height="48" stroke="#EAECF0"/>
<rect x="1776" y="384" width="48" height="48" stroke="#EAECF0"/>
<rect x="1824" y="384" width="48" height="48" stroke="#EAECF0"/>
<rect x="1872" y="384" width="48" height="48" stroke="#EAECF0"/>
<rect x="1296" y="432" width="48" height="48" stroke="#EAECF0"/>
<rect x="1344" y="432" width="48" height="48" stroke="#EAECF0"/>
<rect x="1392" y="432" width="48" height="48" stroke="#EAECF0"/>
<rect x="1440" y="432" width="48" height="48" stroke="#EAECF0"/>
<rect x="1488" y="432" width="48" height="48" stroke="#EAECF0"/>
<rect x="1536" y="432" width="48" height="48" stroke="#EAECF0"/>
<rect x="1584" y="432" width="48" height="48" fill="#F2F4F7" stroke="#EAECF0"/>
<rect x="1632" y="432" width="48" height="48" stroke="#EAECF0"/>
<rect x="1680" y="432" width="48" height="48" stroke="#EAECF0"/>
<rect x="1728" y="432" width="48" height="48" stroke="#EAECF0"/>
<rect x="1776" y="432" width="48" height="48" stroke="#EAECF0"/>
<rect x="1824" y="432" width="48" height="48" stroke="#EAECF0"/>
<rect x="1872" y="432" width="48" height="48" stroke="#EAECF0"/>
<rect x="1680" y="480" width="48" height="48" stroke="#EAECF0"/>
<rect x="1728" y="480" width="48" height="48" stroke="#EAECF0"/>
<rect x="1776" y="480" width="48" height="48" fill="#F2F4F7" stroke="#EAECF0"/>
<rect x="1824" y="480" width="48" height="48" stroke="#EAECF0"/>
<rect x="1872" y="480" width="48" height="48" stroke="#EAECF0"/>
<rect x="1296" y="528" width="48" height="48" stroke="#EAECF0"/>
<rect x="1344" y="528" width="48" height="48" fill="#F2F4F7" stroke="#EAECF0"/>
<rect x="1392" y="528" width="48" height="48" stroke="#EAECF0"/>
<rect x="1440" y="528" width="48" height="48" stroke="#EAECF0"/>
<rect x="1488" y="528" width="48" height="48" stroke="#EAECF0"/>
<rect x="1536" y="528" width="48" height="48" stroke="#EAECF0"/>
<rect x="1584" y="528" width="48" height="48" stroke="#EAECF0"/>
<rect x="1632" y="528" width="48" height="48" stroke="#EAECF0"/>
<rect x="1632" y="576" width="48" height="48" fill="#F2F4F7" stroke="#EAECF0"/>
<rect x="1680" y="576" width="48" height="48" stroke="#EAECF0"/>
<rect x="1728" y="576" width="48" height="48" stroke="#EAECF0"/>
<rect x="1776" y="576" width="48" height="48" stroke="#EAECF0"/>
<rect x="1824" y="576" width="48" height="48" stroke="#EAECF0"/>
<rect x="1872" y="576" width="48" height="48" stroke="#EAECF0"/>
<rect x="1632" y="624" width="48" height="48" stroke="#EAECF0"/>
<rect x="1680" y="624" width="48" height="48" stroke="#EAECF0"/>
<rect x="1728" y="624" width="48" height="48" stroke="#EAECF0"/>
<rect x="1776" y="624" width="48" height="48" stroke="#EAECF0"/>
<rect x="1824" y="624" width="48" height="48" stroke="#EAECF0"/>
<rect x="1872" y="624" width="48" height="48" fill="#F2F4F7" stroke="#EAECF0"/>
<rect x="1392" y="672" width="48" height="48" stroke="#EAECF0"/>
<rect x="1440" y="672" width="48" height="48" fill="#F2F4F7" stroke="#EAECF0"/>
<rect x="1488" y="672" width="48" height="48" stroke="#EAECF0"/>
<rect x="1536" y="672" width="48" height="48" stroke="#EAECF0"/>
<rect x="1584" y="672" width="48" height="48" stroke="#EAECF0"/>
<rect x="1632" y="672" width="48" height="48" stroke="#EAECF0"/>
<rect x="1680" y="672" width="48" height="48" stroke="#EAECF0"/>
<rect x="1728" y="672" width="48" height="48" fill="#F2F4F7" stroke="#EAECF0"/>
<rect x="1776" y="672" width="48" height="48" stroke="#EAECF0"/>
<rect x="1824" y="672" width="48" height="48" stroke="#EAECF0"/>
<rect x="1872" y="672" width="48" height="48" stroke="#EAECF0"/>
<rect x="1296" y="720" width="48" height="48" stroke="#EAECF0"/>
<rect x="1344" y="720" width="48" height="48" fill="#F2F4F7" stroke="#EAECF0"/>
<rect x="1392" y="720" width="48" height="48" stroke="#EAECF0"/>
<rect x="1440" y="720" width="48" height="48" stroke="#EAECF0"/>
<rect x="1488" y="720" width="48" height="48" stroke="#EAECF0"/>
<rect x="1536" y="720" width="48" height="48" stroke="#EAECF0"/>
<rect x="1584" y="720" width="48" height="48" stroke="#EAECF0"/>
<rect x="1632" y="720" width="48" height="48" stroke="#EAECF0"/>
<rect x="1296" y="768" width="48" height="48" stroke="#EAECF0"/>
<rect x="1344" y="768" width="48" height="48" fill="#F2F4F7" stroke="#EAECF0"/>
<rect x="1392" y="768" width="48" height="48" stroke="#EAECF0"/>
<rect x="1440" y="768" width="48" height="48" stroke="#EAECF0"/>
<rect x="1488" y="768" width="48" height="48" stroke="#EAECF0"/>
<rect x="1536" y="768" width="48" height="48" stroke="#EAECF0"/>
<rect x="1584" y="768" width="48" height="48" stroke="#EAECF0"/>
<rect x="1632" y="768" width="48" height="48" stroke="#EAECF0"/>
<rect x="1296" y="816" width="48" height="48" stroke="#EAECF0"/>
<rect x="1344" y="816" width="48" height="48" stroke="#EAECF0"/>
<rect x="1392" y="816" width="48" height="48" stroke="#EAECF0"/>
<rect x="1440" y="816" width="48" height="48" stroke="#EAECF0"/>
<rect x="1488" y="816" width="48" height="48" stroke="#EAECF0"/>
<rect x="1536" y="816" width="48" height="48" stroke="#EAECF0"/>
<rect x="1584" y="816" width="48" height="48" fill="#F2F4F7" stroke="#EAECF0"/>
<rect x="1632" y="816" width="48" height="48" stroke="#EAECF0"/>
<rect x="1680" y="816" width="48" height="48" stroke="#EAECF0"/>
<rect x="1728" y="816" width="48" height="48" stroke="#EAECF0"/>
<rect x="1776" y="816" width="48" height="48" stroke="#EAECF0"/>
<rect x="1824" y="816" width="48" height="48" stroke="#EAECF0"/>
<rect x="1872" y="816" width="48" height="48" stroke="#EAECF0"/>
<rect x="1296" y="864" width="48" height="48" stroke="#EAECF0"/>
<rect x="1344" y="864" width="48" height="48" fill="#F2F4F7" stroke="#EAECF0"/>
<rect x="1392" y="864" width="48" height="48" stroke="#EAECF0"/>
<rect x="1440" y="864" width="48" height="48" stroke="#EAECF0"/>
<rect x="1488" y="864" width="48" height="48" stroke="#EAECF0"/>
<rect x="1536" y="864" width="48" height="48" stroke="#EAECF0"/>
<rect x="1584" y="864" width="48" height="48" stroke="#EAECF0"/>
<rect x="1632" y="864" width="48" height="48" stroke="#EAECF0"/>
<rect x="1632" y="912" width="48" height="48" stroke="#EAECF0"/>
<rect x="1680" y="912" width="48" height="48" stroke="#EAECF0"/>
<rect x="1728" y="912" width="48" height="48" stroke="#EAECF0"/>
<rect x="1776" y="912" width="48" height="48" stroke="#EAECF0"/>
<rect x="1824" y="912" width="48" height="48" stroke="#EAECF0"/>
<rect x="1872" y="912" width="48" height="48" stroke="#EAECF0"/>
<rect x="1536" y="960" width="48" height="48" stroke="#EAECF0"/>
<rect x="1584" y="960" width="48" height="48" stroke="#EAECF0"/>
<rect x="1632" y="960" width="48" height="48" stroke="#EAECF0"/>
<rect x="1680" y="960" width="48" height="48" stroke="#EAECF0"/>
<rect x="1728" y="960" width="48" height="48" stroke="#EAECF0"/>
<rect x="1776" y="960" width="48" height="48" stroke="#EAECF0"/>
<rect x="1824" y="960" width="48" height="48" stroke="#EAECF0"/>
<rect x="1872" y="960" width="48" height="48" stroke="#EAECF0"/>
<rect x="1632" y="1008" width="48" height="48" stroke="#EAECF0"/>
<rect x="1680" y="1008" width="48" height="48" stroke="#EAECF0"/>
<rect x="1728" y="1008" width="48" height="48" stroke="#EAECF0"/>
<rect x="1776" y="1008" width="48" height="48" stroke="#EAECF0"/>
<rect x="1824" y="1008" width="48" height="48" stroke="#EAECF0"/>
<rect x="1872" y="1008" width="48" height="48" stroke="#EAECF0"/>
<rect x="1632" y="1056" width="48" height="48" stroke="#EAECF0"/>
<rect x="1680" y="1056" width="48" height="48" stroke="#EAECF0"/>
<rect x="1728" y="1056" width="48" height="48" stroke="#EAECF0"/>
<rect x="1776" y="1056" width="48" height="48" stroke="#EAECF0"/>
<rect x="1824" y="1056" width="48" height="48" stroke="#EAECF0"/>
<rect x="1872" y="1056" width="48" height="48" stroke="#EAECF0"/>
<rect width="48" height="48" transform="matrix(1 0 0 -1 0 1104)" stroke="#EAECF0"/>
<rect width="48" height="48" transform="matrix(1 0 0 -1 48 1104)" stroke="#EAECF0"/>
<rect width="48" height="48" transform="matrix(1 0 0 -1 96 1104)" stroke="#EAECF0"/>
<rect width="48" height="48" transform="matrix(1 0 0 -1 144 1104)" stroke="#EAECF0"/>
<rect width="48" height="48" transform="matrix(1 0 0 -1 192 1104)" stroke="#EAECF0"/>
<rect width="48" height="48" transform="matrix(1 0 0 -1 240 1104)" stroke="#EAECF0"/>
<rect width="48" height="48" transform="matrix(1 0 0 -1 0 1056)" stroke="#EAECF0"/>
<rect width="48" height="48" transform="matrix(1 0 0 -1 48 1056)" stroke="#EAECF0"/>
<rect width="48" height="48" transform="matrix(1 0 0 -1 96 1056)" stroke="#EAECF0"/>
<rect width="48" height="48" transform="matrix(1 0 0 -1 144 1056)" stroke="#EAECF0"/>
<rect width="48" height="48" transform="matrix(1 0 0 -1 192 1056)" stroke="#EAECF0"/>
<rect width="48" height="48" transform="matrix(1 0 0 -1 240 1056)" stroke="#EAECF0"/>
<rect width="48" height="48" transform="matrix(1 0 0 -1 288 1056)" stroke="#EAECF0"/>
<rect width="48" height="48" transform="matrix(1 0 0 -1 336 1056)" stroke="#EAECF0"/>
<rect width="48" height="48" transform="matrix(1 0 0 -1 0 1008)" stroke="#EAECF0"/>
<rect width="48" height="48" transform="matrix(1 0 0 -1 48 1008)" stroke="#EAECF0"/>
<rect width="48" height="48" transform="matrix(1 0 0 -1 96 1008)" stroke="#EAECF0"/>
<rect width="48" height="48" transform="matrix(1 0 0 -1 144 1008)" stroke="#EAECF0"/>
<rect width="48" height="48" transform="matrix(1 0 0 -1 192 1008)" stroke="#EAECF0"/>
<rect width="48" height="48" transform="matrix(1 0 0 -1 240 1008)" stroke="#EAECF0"/>
<rect width="48" height="48" transform="matrix(1 0 0 -1 0 960)" stroke="#EAECF0"/>
<rect width="48" height="48" transform="matrix(1 0 0 -1 48 960)" stroke="#EAECF0"/>
<rect width="48" height="48" transform="matrix(1 0 0 -1 96 960)" stroke="#EAECF0"/>
<rect width="48" height="48" transform="matrix(1 0 0 -1 144 960)" stroke="#EAECF0"/>
<rect width="48" height="48" transform="matrix(1 0 0 -1 192 960)" stroke="#EAECF0"/>
<rect width="48" height="48" transform="matrix(1 0 0 -1 240 960)" stroke="#EAECF0"/>
<rect width="48" height="48" transform="matrix(1 0 0 -1 288 960)" fill="#F2F4F7" stroke="#EAECF0"/>
<rect width="48" height="48" transform="matrix(1 0 0 -1 336 960)" stroke="#EAECF0"/>
<rect width="48" height="48" transform="matrix(1 0 0 -1 384 960)" stroke="#EAECF0"/>
<rect width="48" height="48" transform="matrix(1 0 0 -1 432 960)" stroke="#EAECF0"/>
<rect width="48" height="48" transform="matrix(1 0 0 -1 480 960)" stroke="#EAECF0"/>
<rect width="48" height="48" transform="matrix(1 0 0 -1 528 960)" stroke="#EAECF0"/>
<rect width="48" height="48" transform="matrix(1 0 0 -1 576 960)" stroke="#EAECF0"/>
<rect width="48" height="48" transform="matrix(1 0 0 -1 0 912)" fill="#F2F4F7" stroke="#EAECF0"/>
<rect width="48" height="48" transform="matrix(1 0 0 -1 48 912)" stroke="#EAECF0"/>
<rect width="48" height="48" transform="matrix(1 0 0 -1 96 912)" stroke="#EAECF0"/>
<rect width="48" height="48" transform="matrix(1 0 0 -1 144 912)" stroke="#EAECF0"/>
<rect width="48" height="48" transform="matrix(1 0 0 -1 192 912)" stroke="#EAECF0"/>
<rect width="48" height="48" transform="matrix(1 0 0 -1 240 912)" stroke="#EAECF0"/>
<rect width="48" height="48" transform="matrix(1 0 0 -1 0 864)" stroke="#EAECF0"/>
<rect width="48" height="48" transform="matrix(1 0 0 -1 48 864)" fill="#F2F4F7" stroke="#EAECF0"/>
<rect width="48" height="48" transform="matrix(1 0 0 -1 96 864)" stroke="#EAECF0"/>
<rect width="48" height="48" transform="matrix(1 0 0 -1 144 864)" stroke="#EAECF0"/>
<rect width="48" height="48" transform="matrix(1 0 0 -1 192 864)" stroke="#EAECF0"/>
<rect width="48" height="48" transform="matrix(1 0 0 -1 240 864)" stroke="#EAECF0"/>
<rect width="48" height="48" transform="matrix(1 0 0 -1 288 864)" stroke="#EAECF0"/>
<rect width="48" height="48" transform="matrix(1 0 0 -1 336 864)" fill="#F2F4F7" stroke="#EAECF0"/>
<rect width="48" height="48" transform="matrix(1 0 0 -1 384 864)" stroke="#EAECF0"/>
<rect width="48" height="48" transform="matrix(1 0 0 -1 432 864)" stroke="#EAECF0"/>
<rect width="48" height="48" transform="matrix(1 0 0 -1 480 864)" stroke="#EAECF0"/>
<rect width="48" height="48" transform="matrix(1 0 0 -1 0 816)" stroke="#EAECF0"/>
<rect width="48" height="48" transform="matrix(1 0 0 -1 48 816)" stroke="#EAECF0"/>
<rect width="48" height="48" transform="matrix(1 0 0 -1 96 816)" stroke="#EAECF0"/>
<rect width="48" height="48" transform="matrix(1 0 0 -1 144 816)" stroke="#EAECF0"/>
<rect width="48" height="48" transform="matrix(1 0 0 -1 192 816)" stroke="#EAECF0"/>
<rect width="48" height="48" transform="matrix(1 0 0 -1 240 816)" stroke="#EAECF0"/>
<rect width="48" height="48" transform="matrix(1 0 0 -1 0 768)" stroke="#EAECF0"/>
<rect width="48" height="48" transform="matrix(1 0 0 -1 48 768)" stroke="#EAECF0"/>
<rect width="48" height="48" transform="matrix(1 0 0 -1 96 768)" fill="#F2F4F7" stroke="#EAECF0"/>
<rect width="48" height="48" transform="matrix(1 0 0 -1 144 768)" stroke="#EAECF0"/>
<rect width="48" height="48" transform="matrix(1 0 0 -1 192 768)" stroke="#EAECF0"/>
<rect width="48" height="48" transform="matrix(1 0 0 -1 0 720)" stroke="#EAECF0"/>
<rect width="48" height="48" transform="matrix(1 0 0 -1 48 720)" fill="#F2F4F7" stroke="#EAECF0"/>
<rect width="48" height="48" transform="matrix(1 0 0 -1 96 720)" stroke="#EAECF0"/>
<rect width="48" height="48" transform="matrix(1 0 0 -1 144 720)" stroke="#EAECF0"/>
<rect width="48" height="48" transform="matrix(1 0 0 -1 192 720)" stroke="#EAECF0"/>
<rect width="48" height="48" transform="matrix(1 0 0 -1 240 720)" stroke="#EAECF0"/>
<rect width="48" height="48" transform="matrix(1 0 0 -1 288 720)" stroke="#EAECF0"/>
<rect width="48" height="48" transform="matrix(1 0 0 -1 336 720)" stroke="#EAECF0"/>
<rect width="48" height="48" transform="matrix(1 0 0 -1 0 672)" stroke="#EAECF0"/>
<rect width="48" height="48" transform="matrix(1 0 0 -1 48 672)" stroke="#EAECF0"/>
<rect width="48" height="48" transform="matrix(1 0 0 -1 96 672)" stroke="#EAECF0"/>
<rect width="48" height="48" transform="matrix(1 0 0 -1 144 672)" stroke="#EAECF0"/>
<rect width="48" height="48" transform="matrix(1 0 0 -1 192 672)" stroke="#EAECF0"/>
<rect width="48" height="48" transform="matrix(1 0 0 -1 240 672)" fill="#F2F4F7" stroke="#EAECF0"/>
<rect width="48" height="48" transform="matrix(1 0 0 -1 0 624)" stroke="#EAECF0"/>
<rect width="48" height="48" transform="matrix(1 0 0 -1 48 624)" stroke="#EAECF0"/>
<rect width="48" height="48" transform="matrix(1 0 0 -1 96 624)" stroke="#EAECF0"/>
<rect width="48" height="48" transform="matrix(1 0 0 -1 144 624)" stroke="#EAECF0"/>
<rect width="48" height="48" transform="matrix(1 0 0 -1 192 624)" stroke="#EAECF0"/>
<rect width="48" height="48" transform="matrix(1 0 0 -1 240 624)" stroke="#EAECF0"/>
<rect width="48" height="48" transform="matrix(1 0 0 -1 0 576)" stroke="#EAECF0"/>
<rect width="48" height="48" transform="matrix(1 0 0 -1 48 576)" stroke="#EAECF0"/>
<rect width="48" height="48" transform="matrix(1 0 0 -1 96 576)" stroke="#EAECF0"/>
<rect width="48" height="48" transform="matrix(1 0 0 -1 144 576)" stroke="#EAECF0"/>
<rect width="48" height="48" transform="matrix(1 0 0 -1 192 576)" stroke="#EAECF0"/>
<rect width="48" height="48" transform="matrix(1 0 0 -1 240 576)" stroke="#EAECF0"/>
<rect width="48" height="48" transform="matrix(1 0 0 -1 288 576)" stroke="#EAECF0"/>
<rect width="48" height="48" transform="matrix(1 0 0 -1 336 576)" stroke="#EAECF0"/>
<rect width="48" height="48" transform="matrix(1 0 0 -1 0 528)" stroke="#EAECF0"/>
<rect width="48" height="48" transform="matrix(1 0 0 -1 48 528)" stroke="#EAECF0"/>
<rect width="48" height="48" transform="matrix(1 0 0 -1 96 528)" stroke="#EAECF0"/>
<rect width="48" height="48" transform="matrix(1 0 0 -1 144 528)" stroke="#EAECF0"/>
<rect width="48" height="48" transform="matrix(1 0 0 -1 192 528)" stroke="#EAECF0"/>
<rect width="48" height="48" transform="matrix(1 0 0 -1 240 528)" stroke="#EAECF0"/>
<rect width="48" height="48" transform="matrix(1 0 0 -1 0 480)" stroke="#EAECF0"/>
<rect width="48" height="48" transform="matrix(1 0 0 -1 48 480)" stroke="#EAECF0"/>
<rect width="48" height="48" transform="matrix(1 0 0 -1 96 480)" stroke="#EAECF0"/>
<rect width="48" height="48" transform="matrix(1 0 0 -1 144 480)" stroke="#EAECF0"/>
<rect width="48" height="48" transform="matrix(1 0 0 -1 192 480)" stroke="#EAECF0"/>
<rect width="48" height="48" transform="matrix(1 0 0 -1 240 480)" stroke="#EAECF0"/>
<rect width="48" height="48" transform="matrix(1 0 0 -1 288 480)" fill="#F2F4F7" stroke="#EAECF0"/>
<rect width="48" height="48" transform="matrix(1 0 0 -1 336 480)" stroke="#EAECF0"/>
<rect width="48" height="48" transform="matrix(1 0 0 -1 384 480)" stroke="#EAECF0"/>
<rect width="48" height="48" transform="matrix(1 0 0 -1 432 480)" stroke="#EAECF0"/>
<rect width="48" height="48" transform="matrix(1 0 0 -1 480 480)" stroke="#EAECF0"/>
<rect width="48" height="48" transform="matrix(1 0 0 -1 528 480)" stroke="#EAECF0"/>
<rect width="48" height="48" transform="matrix(1 0 0 -1 576 480)" stroke="#EAECF0"/>
<rect width="48" height="48" transform="matrix(1 0 0 -1 0 432)" fill="#F2F4F7" stroke="#EAECF0"/>
<rect width="48" height="48" transform="matrix(1 0 0 -1 48 432)" stroke="#EAECF0"/>
<rect width="48" height="48" transform="matrix(1 0 0 -1 96 432)" stroke="#EAECF0"/>
<rect width="48" height="48" transform="matrix(1 0 0 -1 144 432)" stroke="#EAECF0"/>
<rect width="48" height="48" transform="matrix(1 0 0 -1 192 432)" stroke="#EAECF0"/>
<rect width="48" height="48" transform="matrix(1 0 0 -1 240 432)" stroke="#EAECF0"/>
<rect width="48" height="48" transform="matrix(1 0 0 -1 0 384)" stroke="#EAECF0"/>
<rect width="48" height="48" transform="matrix(1 0 0 -1 48 384)" fill="#F2F4F7" stroke="#EAECF0"/>
<rect width="48" height="48" transform="matrix(1 0 0 -1 96 384)" stroke="#EAECF0"/>
<rect width="48" height="48" transform="matrix(1 0 0 -1 144 384)" stroke="#EAECF0"/>
<rect width="48" height="48" transform="matrix(1 0 0 -1 192 384)" stroke="#EAECF0"/>
<rect width="48" height="48" transform="matrix(1 0 0 -1 240 384)" stroke="#EAECF0"/>
<rect width="48" height="48" transform="matrix(1 0 0 -1 288 384)" stroke="#EAECF0"/>
<rect width="48" height="48" transform="matrix(1 0 0 -1 336 384)" stroke="#EAECF0"/>
<rect width="48" height="48" transform="matrix(1 0 0 -1 0 336)" stroke="#EAECF0"/>
<rect width="48" height="48" transform="matrix(1 0 0 -1 48 336)" stroke="#EAECF0"/>
<rect width="48" height="48" transform="matrix(1 0 0 -1 96 336)" stroke="#EAECF0"/>
<rect width="48" height="48" transform="matrix(1 0 0 -1 144 336)" stroke="#EAECF0"/>
<rect width="48" height="48" transform="matrix(1 0 0 -1 192 336)" stroke="#EAECF0"/>
<rect width="48" height="48" transform="matrix(1 0 0 -1 240 336)" stroke="#EAECF0"/>
<rect width="48" height="48" transform="matrix(1 0 0 -1 288 336)" stroke="#EAECF0"/>
<rect width="48" height="48" transform="matrix(1 0 0 -1 336 336)" stroke="#EAECF0"/>
<rect width="48" height="48" transform="matrix(1 0 0 -1 0 288)" fill="#F2F4F7" stroke="#EAECF0"/>
<rect width="48" height="48" transform="matrix(1 0 0 -1 48 288)" stroke="#EAECF0"/>
<rect width="48" height="48" transform="matrix(1 0 0 -1 96 288)" stroke="#EAECF0"/>
<rect width="48" height="48" transform="matrix(1 0 0 -1 144 288)" stroke="#EAECF0"/>
<rect width="48" height="48" transform="matrix(1 0 0 -1 192 288)" stroke="#EAECF0"/>
<rect width="48" height="48" transform="matrix(1 0 0 -1 240 288)" stroke="#EAECF0"/>
<rect width="48" height="48" transform="matrix(1 0 0 -1 0 240)" stroke="#EAECF0"/>
<rect width="48" height="48" transform="matrix(1 0 0 -1 48 240)" fill="#F2F4F7" stroke="#EAECF0"/>
<rect width="48" height="48" transform="matrix(1 0 0 -1 96 240)" stroke="#EAECF0"/>
<rect width="48" height="48" transform="matrix(1 0 0 -1 144 240)" stroke="#EAECF0"/>
<rect width="48" height="48" transform="matrix(1 0 0 -1 192 240)" stroke="#EAECF0"/>
<rect width="48" height="48" transform="matrix(1 0 0 -1 240 240)" stroke="#EAECF0"/>
<rect width="48" height="48" transform="matrix(1 0 0 -1 288 240)" stroke="#EAECF0"/>
<rect width="48" height="48" transform="matrix(1 0 0 -1 336 240)" fill="#F2F4F7" stroke="#EAECF0"/>
<rect width="48" height="48" transform="matrix(1 0 0 -1 384 240)" stroke="#EAECF0"/>
<rect width="48" height="48" transform="matrix(1 0 0 -1 432 240)" stroke="#EAECF0"/>
<rect width="48" height="48" transform="matrix(1 0 0 -1 480 240)" stroke="#EAECF0"/>
<rect width="48" height="48" transform="matrix(1 0 0 -1 0 192)" stroke="#EAECF0"/>
<rect width="48" height="48" transform="matrix(1 0 0 -1 48 192)" stroke="#EAECF0"/>
<rect width="48" height="48" transform="matrix(1 0 0 -1 96 192)" stroke="#EAECF0"/>
<rect width="48" height="48" transform="matrix(1 0 0 -1 144 192)" stroke="#EAECF0"/>
<rect width="48" height="48" transform="matrix(1 0 0 -1 192 192)" stroke="#EAECF0"/>
<rect width="48" height="48" transform="matrix(1 0 0 -1 240 192)" stroke="#EAECF0"/>
<rect width="48" height="48" transform="matrix(1 0 0 -1 0 144)" stroke="#EAECF0"/>
<rect width="48" height="48" transform="matrix(1 0 0 -1 48 144)" stroke="#EAECF0"/>
<rect width="48" height="48" transform="matrix(1 0 0 -1 96 144)" fill="#F2F4F7" stroke="#EAECF0"/>
<rect width="48" height="48" transform="matrix(1 0 0 -1 144 144)" stroke="#EAECF0"/>
<rect width="48" height="48" transform="matrix(1 0 0 -1 192 144)" stroke="#EAECF0"/>
<rect width="48" height="48" transform="matrix(1 0 0 -1 0 96)" stroke="#EAECF0"/>
<rect width="48" height="48" transform="matrix(1 0 0 -1 48 96)" fill="#F2F4F7" stroke="#EAECF0"/>
<rect width="48" height="48" transform="matrix(1 0 0 -1 96 96)" stroke="#EAECF0"/>
<rect width="48" height="48" transform="matrix(1 0 0 -1 144 96)" stroke="#EAECF0"/>
<rect width="48" height="48" transform="matrix(1 0 0 -1 192 96)" stroke="#EAECF0"/>
<rect width="48" height="48" transform="matrix(1 0 0 -1 240 96)" stroke="#EAECF0"/>
<rect width="48" height="48" transform="matrix(1 0 0 -1 288 96)" stroke="#EAECF0"/>
<rect width="48" height="48" transform="matrix(1 0 0 -1 336 96)" stroke="#EAECF0"/>
<rect width="48" height="48" transform="matrix(1 0 0 -1 0 48)" stroke="#EAECF0"/>
<rect width="48" height="48" transform="matrix(1 0 0 -1 48 48)" stroke="#EAECF0"/>
<rect width="48" height="48" transform="matrix(1 0 0 -1 96 48)" stroke="#EAECF0"/>
<rect width="48" height="48" transform="matrix(1 0 0 -1 144 48)" stroke="#EAECF0"/>
<rect width="48" height="48" transform="matrix(1 0 0 -1 192 48)" stroke="#EAECF0"/>
<rect width="48" height="48" transform="matrix(1 0 0 -1 240 48)" fill="#F2F4F7" stroke="#EAECF0"/>
</g>
<defs>
<radialGradient id="paint0_radial_541_49796" cx="0" cy="0" r="1" gradientUnits="userSpaceOnUse" gradientTransform="translate(960 540) rotate(180) scale(960 3071.33)">
<stop offset="0.195152" stop-color="#F6F6F8" stop-opacity="0"/>
<stop offset="1" stop-color="#F6F6F8"/>
</radialGradient>
</defs>
</svg>
